<svg xmlns="http://www.w3.org/2000/svg" viewBox="0 0 256 256">
  <rect width="256" height="256" rx="52" fill="#0b5aa6"/>
  <path d="M49 143h158l-14-43c-3-10-12-17-23-17H86c-11 0-20 7-23 17l-14 43Z" fill="#fff"/>
  <path d="M61 141h134c10 0 18 8 18 18v31c0 7-5 12-12 12h-10c-7 0-12-5-12-12v-4H77v4c0 7-5 12-12 12H55c-7 0-12-5-12-12v-31c0-10 8-18 18-18Z" fill="#fff"/>
  <circle cx="78" cy="163" r="12" fill="#0b5aa6"/>
  <circle cx="178" cy="163" r="12" fill="#0b5aa6"/>
  <path d="M102 158h52v13h-52z" fill="#0b5aa6"/>
  <circle cx="196" cy="62" r="38" fill="#ef3e36"/>
  <path d="M196 39v29" stroke="#fff" stroke-width="12" stroke-linecap="round"/>
  <circle cx="196" cy="82" r="6" fill="#fff"/>
</svg>
